#!OML:ASF G:\JayActor3\Patient Classification 1\Patient 1\Session 5\male.ASF
:FULLY-SPECIFIED
:DEGREES
370
root -17.6052 16.8069 -6.45109 -7.06408 85.1429 -4.34656
lowerback 0.831467 -0.607225 -0.420534
upperback 2.09121 -0.766165 -1.41446
thorax 1.66214 -0.366916 -1.21809
lowerneck -9.10909 0.462865 1.73499
upperneck 12.2079 0.0770998 2.75067
head 5.17302 0.334026 0.580749
rclavicle -6.08778e-016 -7.55382e-015
rhumerus -32.9619 -1.83841 -88.9728
rradius 32.1503
rwrist -1.11277
rhand -19.0446 -7.08085
rfingers 7.12502
rthumb 7.26213 -36.9362
lclavicle -6.08778e-016 -7.55382e-015
lhumerus -30.8123 4.90366 82.2628
lradius 24.37
lwrist 15.3243
lhand -17.0634 13.4306
lfingers 7.12502
lthumb 9.17412 43.2111
rfemur -16.0662 0.0497898 20.1602
rtibia 71.6467
rfoot -1.28526 -10.869
rtoes 1.91872
lfemur -5.44876 16.3079 -23.5916
ltibia 21.8141
lfoot -15.5966 -5.78365
ltoes -2.34638
371
root -17.497 16.7934 -6.45867 -5.80358 85.1892 -3.01429
lowerback 0.874776 -0.643613 -0.537107
upperback 2.13793 -0.813061 -1.42359
thorax 1.68649 -0.391551 -1.16227
lowerneck -9.1243 0.474472 1.72529
upperneck 12.2378 0.100213 2.69396
head 5.18462 0.341451 0.566476
rclavicle 6.84565e-015 9.14409e-015
rhumerus -32.9232 -1.66224 -89.0031
rradius 32.2416
rwrist -1.17996
rhand -18.9965 -7.08432
rfingers 7.12502
rthumb 7.30853 -36.9381
lclavicle 6.84565e-015 9.14409e-015
lhumerus -30.541 4.73196 82.3562
lradius 24.5815
lwrist 15.5502
lhand -17.0221 13.3655
lfingers 7.12502
lthumb 9.21398 43.1442
rfemur -16.9789 0.461076 20.116
rtibia 71.5682
rfoot -3.38298 -10.455
rtoes 0.619221
lfemur -5.02993 16.0171 -23.6859
ltibia 21.9963
lfoot -16.0655 -5.50858
ltoes -2.8539
372
root -17.389 16.7791 -6.46558 -4.34377 85.2451 -1.48726
lowerback 0.918821 -0.684115 -0.677311
upperback 2.17944 -0.865569 -1.4315
thorax 1.70558 -0.419465 -1.09194
lowerneck -9.13838 0.489427 1.72268
upperneck 12.2696 0.12795 2.62921
head 5.19667 0.350928 0.548877
rclavicle 1.77664e-015 4.77083e-015
rhumerus -32.8868 -1.48437 -89.0245
rradius 32.3196
rwrist -1.24021
rhand -18.9365 -7.08689
rfingers 7.12502
rthumb 7.36643 -36.9386
lclavicle 1.77664e-015 4.77083e-015
lhumerus -30.2917 4.56185 82.4567
lradius 24.8265
lwrist 15.7868
lhand -16.972 13.2964
lfingers 7.12502
lthumb 9.26233 43.0729
rfemur -17.8687 0.863363 20.0564
rtibia 71.3757
rfoot -5.51839 -10.1546
rtoes -0.557605
lfemur -4.61406 15.7621 -23.7927
ltibia 22.1721
lfoot -16.5227 -5.2781
ltoes -3.40313
373
root -17.2815 16.7643 -6.47184 -2.7918 85.3093 0.12179
lowerback 0.96595 -0.727638 -0.829126
upperback 2.21117 -0.922524 -1.43715
thorax 1.71332 -0.449928 -1.01266
lowerneck -9.14452 0.504417 1.72589
upperneck 12.3023 0.15566 2.56151
head 5.20767 0.360449 0.529387
rclavicle -1.09332e-015 2.22639e-014
rhumerus -32.855 -1.32335 -89.0334
rradius 32.3819
rwrist -1.28773
rhand -18.8715 -7.09092
rfingers 7.12502
rthumb 7.42917 -36.9405
lclavicle -1.09332e-015 2.22639e-014
lhumerus -30.0688 4.38343 82.5657
lradius 25.1075
lwrist 16.0244
lhand -16.9255 13.2463
lfingers 7.12502
lthumb 9.30719 43.0209
rfemur -18.7434 1.2586 19.9934
rtibia 71.0714
rfoot -7.56154 -10.0024
rtoes -1.43659
lfemur -4.21293 15.5491 -23.8997
ltibia 22.3489
lfoot -16.964 -5.0979
ltoes -3.99307
374
root -17.1744 16.7495 -6.47754 -1.30263 85.3779 1.65744
lowerback 1.01513 -0.774226 -0.97783
upperback 2.23413 -0.984128 -1.43706
thorax 1.71123 -0.482825 -0.929125
lowerneck -9.1519 0.520679 1.73058
upperneck 12.3434 0.18441 2.49702
head 5.22153 0.370954 0.510772
rclavicle 1.88597e-014 -7.95139e-016
rhumerus -32.8261 -1.17906 -89.0301
rradius 32.4263
rwrist -1.32163
rhand -18.8109 -7.09979
rfingers 7.12502
rthumb 7.48769 -36.9473
lclavicle 1.88597e-014 -7.95139e-016
lhumerus -29.8741 4.20052 82.6838
lradius 25.4278
lwrist 16.2564
lhand -16.9051 13.2413
lfingers 7.12502
lthumb 9.32696 43.0149
rfemur -19.6 1.6534 19.9416
rtibia 70.6552
rfoot -9.46282 -10.0019
rtoes -2.06263
lfemur -3.82441 15.3768 -23.9904
ltibia 22.5268
lfoot -17.387 -4.9892
ltoes -4.43064
